<mxfile host="app.diagrams.net" modified="2024-05-08T03:12:40.116Z" agent="Mozilla/5.0 (Windows NT 10.0; Win64; x64) AppleWebKit/537.36 (KHTML, like Gecko) Chrome/124.0.0.0 Safari/537.36" etag="Q9czIOUofYZGpep3D7pZ" version="24.3.1" type="device">
  <diagram name="PÃ¡gina-1" id="BCXv40WFk7sCB6Hej2--">
    <mxGraphModel dx="3124" dy="1690" grid="1" gridSize="10" guides="1" tooltips="1" connect="1" arrows="1" fold="1" page="1" pageScale="1" pageWidth="827" pageHeight="1169" math="0" shadow="0">
      <root>
        <mxCell id="0" />
        <mxCell id="1" parent="0" />
        <mxCell id="TBtc9OhAfgtJWs3fjQMd-46" value="" style="rounded=0;whiteSpace=wrap;html=1;" vertex="1" parent="1">
          <mxGeometry x="810" y="10" width="250" height="1270" as="geometry" />
        </mxCell>
        <mxCell id="TBtc9OhAfgtJWs3fjQMd-45" value="" style="rounded=0;whiteSpace=wrap;html=1;" vertex="1" parent="1">
          <mxGeometry y="610" width="810" height="670" as="geometry" />
        </mxCell>
        <mxCell id="TBtc9OhAfgtJWs3fjQMd-44" value="" style="rounded=0;whiteSpace=wrap;html=1;" vertex="1" parent="1">
          <mxGeometry y="350" width="810" height="270" as="geometry" />
        </mxCell>
        <mxCell id="TBtc9OhAfgtJWs3fjQMd-43" value="" style="rounded=0;whiteSpace=wrap;html=1;" vertex="1" parent="1">
          <mxGeometry y="10" width="810" height="340" as="geometry" />
        </mxCell>
        <mxCell id="c734w6c-eVpLBY2QEzrI-2" value="Article" style="rounded=0;whiteSpace=wrap;html=1;" parent="1" vertex="1">
          <mxGeometry x="120" y="410" width="120" height="60" as="geometry" />
        </mxCell>
        <mxCell id="c734w6c-eVpLBY2QEzrI-26" style="edgeStyle=orthogonalEdgeStyle;rounded=0;orthogonalLoop=1;jettySize=auto;html=1;exitX=0.5;exitY=0;exitDx=0;exitDy=0;dashed=1;dashPattern=8 8;endArrow=blockThin;endFill=0;" parent="1" source="c734w6c-eVpLBY2QEzrI-3" target="c734w6c-eVpLBY2QEzrI-9" edge="1">
          <mxGeometry relative="1" as="geometry">
            <Array as="points">
              <mxPoint x="460" y="620" />
              <mxPoint x="460" y="450" />
            </Array>
          </mxGeometry>
        </mxCell>
        <mxCell id="c734w6c-eVpLBY2QEzrI-3" value="ArticleRepositoryImpl" style="rounded=0;whiteSpace=wrap;html=1;" parent="1" vertex="1">
          <mxGeometry x="400" y="660" width="120" height="60" as="geometry" />
        </mxCell>
        <mxCell id="c734w6c-eVpLBY2QEzrI-4" value="ArticleRepositoryInjector" style="rounded=0;whiteSpace=wrap;html=1;" parent="1" vertex="1">
          <mxGeometry x="860" y="700" width="177.5" height="60" as="geometry" />
        </mxCell>
        <mxCell id="c734w6c-eVpLBY2QEzrI-5" value="&lt;div&gt;&amp;lt;&amp;lt;Interface&amp;gt;&amp;gt;&lt;/div&gt;MoreDetailsPresenter" style="rounded=0;whiteSpace=wrap;html=1;" parent="1" vertex="1">
          <mxGeometry x="571" y="70" width="140" height="60" as="geometry" />
        </mxCell>
        <mxCell id="c734w6c-eVpLBY2QEzrI-6" value="MoreDetailsUIState" style="rounded=0;whiteSpace=wrap;html=1;" parent="1" vertex="1">
          <mxGeometry x="80" y="70" width="120" height="60" as="geometry" />
        </mxCell>
        <mxCell id="c734w6c-eVpLBY2QEzrI-27" style="edgeStyle=orthogonalEdgeStyle;rounded=0;orthogonalLoop=1;jettySize=auto;html=1;" parent="1" source="c734w6c-eVpLBY2QEzrI-7" edge="1" target="c734w6c-eVpLBY2QEzrI-5">
          <mxGeometry relative="1" as="geometry">
            <mxPoint x="560" y="120" as="targetPoint" />
            <Array as="points" />
          </mxGeometry>
        </mxCell>
        <mxCell id="c734w6c-eVpLBY2QEzrI-7" value="MoreDetailsView" style="rounded=0;whiteSpace=wrap;html=1;" parent="1" vertex="1">
          <mxGeometry x="320" y="70" width="125" height="60" as="geometry" />
        </mxCell>
        <mxCell id="c734w6c-eVpLBY2QEzrI-9" value="&amp;lt;&amp;lt;Interface&amp;gt;&amp;gt;&lt;div&gt;ArticleRepository&lt;/div&gt;" style="rounded=0;whiteSpace=wrap;html=1;" parent="1" vertex="1">
          <mxGeometry x="581" y="450" width="120" height="60" as="geometry" />
        </mxCell>
        <mxCell id="c734w6c-eVpLBY2QEzrI-12" value="MoreDetailsPresenterImpl" style="rounded=0;whiteSpace=wrap;html=1;" parent="1" vertex="1">
          <mxGeometry x="556" y="210" width="170" height="60" as="geometry" />
        </mxCell>
        <mxCell id="c734w6c-eVpLBY2QEzrI-13" value="" style="endArrow=none;dashed=1;html=1;rounded=0;startArrow=block;startFill=0;exitX=0.5;exitY=1;exitDx=0;exitDy=0;" parent="1" edge="1" target="c734w6c-eVpLBY2QEzrI-12" source="c734w6c-eVpLBY2QEzrI-5">
          <mxGeometry width="50" height="50" relative="1" as="geometry">
            <mxPoint x="640" y="160" as="sourcePoint" />
            <mxPoint x="640" y="270" as="targetPoint" />
          </mxGeometry>
        </mxCell>
        <mxCell id="c734w6c-eVpLBY2QEzrI-14" value="" style="endArrow=classic;html=1;rounded=0;exitX=0;exitY=0.5;exitDx=0;exitDy=0;entryX=1;entryY=0.5;entryDx=0;entryDy=0;" parent="1" source="c734w6c-eVpLBY2QEzrI-7" target="c734w6c-eVpLBY2QEzrI-6" edge="1">
          <mxGeometry width="50" height="50" relative="1" as="geometry">
            <mxPoint x="205" y="70" as="sourcePoint" />
            <mxPoint x="255" y="20" as="targetPoint" />
          </mxGeometry>
        </mxCell>
        <mxCell id="c734w6c-eVpLBY2QEzrI-17" value="" style="endArrow=classic;html=1;rounded=0;dashed=1;" parent="1" source="c734w6c-eVpLBY2QEzrI-7" edge="1" target="TBtc9OhAfgtJWs3fjQMd-17">
          <mxGeometry width="50" height="50" relative="1" as="geometry">
            <mxPoint x="479.9999999999998" y="38.34" as="sourcePoint" />
            <mxPoint x="926.25" y="29.998878504672888" as="targetPoint" />
            <Array as="points">
              <mxPoint x="630" y="30" />
            </Array>
          </mxGeometry>
        </mxCell>
        <mxCell id="c734w6c-eVpLBY2QEzrI-24" value="ArticleDatabase" style="rounded=0;whiteSpace=wrap;html=1;" parent="1" vertex="1">
          <mxGeometry x="170" y="1050" width="120" height="60" as="geometry" />
        </mxCell>
        <mxCell id="c734w6c-eVpLBY2QEzrI-39" style="edgeStyle=orthogonalEdgeStyle;rounded=0;orthogonalLoop=1;jettySize=auto;html=1;entryX=0.5;entryY=1;entryDx=0;entryDy=0;dashed=1;dashPattern=12 12;endArrow=block;endFill=0;" parent="1" source="c734w6c-eVpLBY2QEzrI-28" target="c734w6c-eVpLBY2QEzrI-37" edge="1">
          <mxGeometry relative="1" as="geometry" />
        </mxCell>
        <mxCell id="c734w6c-eVpLBY2QEzrI-28" value="LastfmLocalStorageImpl" style="rounded=0;whiteSpace=wrap;html=1;" parent="1" vertex="1">
          <mxGeometry x="185" y="930" width="150" height="60" as="geometry" />
        </mxCell>
        <mxCell id="c734w6c-eVpLBY2QEzrI-29" value="&lt;div&gt;&amp;lt;&amp;lt;Interface&amp;gt;&amp;gt;&lt;/div&gt;LastfmArticleService" style="rounded=0;whiteSpace=wrap;html=1;" parent="1" vertex="1">
          <mxGeometry x="381" y="780" width="120" height="60" as="geometry" />
        </mxCell>
        <mxCell id="c734w6c-eVpLBY2QEzrI-33" style="edgeStyle=orthogonalEdgeStyle;rounded=0;orthogonalLoop=1;jettySize=auto;html=1;entryX=0.5;entryY=1;entryDx=0;entryDy=0;endArrow=block;endFill=0;dashed=1;dashPattern=8 8;" parent="1" source="c734w6c-eVpLBY2QEzrI-30" target="c734w6c-eVpLBY2QEzrI-29" edge="1">
          <mxGeometry relative="1" as="geometry" />
        </mxCell>
        <mxCell id="c734w6c-eVpLBY2QEzrI-30" value="&lt;div&gt;&lt;span style=&quot;background-color: initial;&quot;&gt;LastfmArticleServiceImpl&lt;/span&gt;&lt;br&gt;&lt;/div&gt;" style="rounded=0;whiteSpace=wrap;html=1;" parent="1" vertex="1">
          <mxGeometry x="369" y="930" width="141" height="60" as="geometry" />
        </mxCell>
        <mxCell id="c734w6c-eVpLBY2QEzrI-31" value="&amp;lt;&amp;lt;Interface&amp;gt;&amp;gt;&lt;div&gt;LastfmArticleResolver&lt;/div&gt;" style="rounded=0;whiteSpace=wrap;html=1;" parent="1" vertex="1">
          <mxGeometry x="571" y="930" width="120" height="60" as="geometry" />
        </mxCell>
        <mxCell id="c734w6c-eVpLBY2QEzrI-36" style="edgeStyle=orthogonalEdgeStyle;rounded=0;orthogonalLoop=1;jettySize=auto;html=1;entryX=0.5;entryY=1;entryDx=0;entryDy=0;dashed=1;dashPattern=8 8;endArrow=blockThin;endFill=0;" parent="1" source="c734w6c-eVpLBY2QEzrI-32" target="c734w6c-eVpLBY2QEzrI-31" edge="1">
          <mxGeometry relative="1" as="geometry" />
        </mxCell>
        <mxCell id="c734w6c-eVpLBY2QEzrI-32" value="JsonToArticleResolver" style="rounded=0;whiteSpace=wrap;html=1;" parent="1" vertex="1">
          <mxGeometry x="566" y="1050" width="130" height="60" as="geometry" />
        </mxCell>
        <mxCell id="c734w6c-eVpLBY2QEzrI-37" value="&lt;div&gt;&amp;lt;&amp;lt;Interface&amp;gt;&amp;gt;&lt;/div&gt;LastfmLocalStorage" style="rounded=0;whiteSpace=wrap;html=1;" parent="1" vertex="1">
          <mxGeometry x="200" y="780" width="120" height="60" as="geometry" />
        </mxCell>
        <mxCell id="c734w6c-eVpLBY2QEzrI-42" value="&lt;div&gt;&amp;lt;&amp;lt;Interface&amp;gt;&amp;gt;&lt;/div&gt;&lt;div&gt;&lt;span style=&quot;background-color: initial;&quot;&gt;LastFMAPI&lt;/span&gt;&lt;br&gt;&lt;/div&gt;" style="rounded=0;whiteSpace=wrap;html=1;" parent="1" vertex="1">
          <mxGeometry x="576" y="840" width="120" height="60" as="geometry" />
        </mxCell>
        <mxCell id="TBtc9OhAfgtJWs3fjQMd-3" value="" style="endArrow=classic;html=1;rounded=0;" edge="1" parent="1" source="c734w6c-eVpLBY2QEzrI-12" target="c734w6c-eVpLBY2QEzrI-9">
          <mxGeometry width="50" height="50" relative="1" as="geometry">
            <mxPoint x="270" y="310" as="sourcePoint" />
            <mxPoint x="320" y="260" as="targetPoint" />
          </mxGeometry>
        </mxCell>
        <mxCell id="TBtc9OhAfgtJWs3fjQMd-4" value="LastFmArticle" style="rounded=0;whiteSpace=wrap;html=1;" vertex="1" parent="1">
          <mxGeometry x="30" y="524" width="120" height="60" as="geometry" />
        </mxCell>
        <mxCell id="TBtc9OhAfgtJWs3fjQMd-5" value="EmptyArticle" style="rounded=0;whiteSpace=wrap;html=1;" vertex="1" parent="1">
          <mxGeometry x="200" y="524" width="120" height="60" as="geometry" />
        </mxCell>
        <mxCell id="TBtc9OhAfgtJWs3fjQMd-8" value="Extends" style="endArrow=block;endSize=16;endFill=0;html=1;rounded=0;exitX=0.611;exitY=0.016;exitDx=0;exitDy=0;exitPerimeter=0;" edge="1" parent="1" source="TBtc9OhAfgtJWs3fjQMd-5" target="c734w6c-eVpLBY2QEzrI-2">
          <mxGeometry width="160" relative="1" as="geometry">
            <mxPoint x="250" y="469.71" as="sourcePoint" />
            <mxPoint x="410" y="469.71" as="targetPoint" />
          </mxGeometry>
        </mxCell>
        <mxCell id="TBtc9OhAfgtJWs3fjQMd-9" value="Extends" style="endArrow=block;endSize=16;endFill=0;html=1;rounded=0;" edge="1" parent="1" source="TBtc9OhAfgtJWs3fjQMd-4" target="c734w6c-eVpLBY2QEzrI-2">
          <mxGeometry width="160" relative="1" as="geometry">
            <mxPoint x="276" y="501" as="sourcePoint" />
            <mxPoint x="213" y="420" as="targetPoint" />
          </mxGeometry>
        </mxCell>
        <mxCell id="TBtc9OhAfgtJWs3fjQMd-11" value="" style="endArrow=classic;html=1;rounded=0;" edge="1" parent="1" source="c734w6c-eVpLBY2QEzrI-3" target="c734w6c-eVpLBY2QEzrI-29">
          <mxGeometry width="50" height="50" relative="1" as="geometry">
            <mxPoint x="210" y="820" as="sourcePoint" />
            <mxPoint x="260" y="770" as="targetPoint" />
          </mxGeometry>
        </mxCell>
        <mxCell id="TBtc9OhAfgtJWs3fjQMd-12" value="" style="endArrow=classic;html=1;rounded=0;" edge="1" parent="1" source="c734w6c-eVpLBY2QEzrI-3" target="c734w6c-eVpLBY2QEzrI-37">
          <mxGeometry width="50" height="50" relative="1" as="geometry">
            <mxPoint x="457" y="690" as="sourcePoint" />
            <mxPoint x="444" y="810" as="targetPoint" />
          </mxGeometry>
        </mxCell>
        <mxCell id="TBtc9OhAfgtJWs3fjQMd-13" value="" style="endArrow=classic;html=1;rounded=0;" edge="1" parent="1" source="c734w6c-eVpLBY2QEzrI-28" target="c734w6c-eVpLBY2QEzrI-24">
          <mxGeometry width="50" height="50" relative="1" as="geometry">
            <mxPoint x="110" y="1030" as="sourcePoint" />
            <mxPoint x="160" y="980" as="targetPoint" />
          </mxGeometry>
        </mxCell>
        <mxCell id="TBtc9OhAfgtJWs3fjQMd-14" value="" style="endArrow=classic;html=1;rounded=0;" edge="1" parent="1" source="c734w6c-eVpLBY2QEzrI-30" target="c734w6c-eVpLBY2QEzrI-31">
          <mxGeometry width="50" height="50" relative="1" as="geometry">
            <mxPoint x="320" y="780" as="sourcePoint" />
            <mxPoint x="370" y="730" as="targetPoint" />
          </mxGeometry>
        </mxCell>
        <mxCell id="TBtc9OhAfgtJWs3fjQMd-15" value="" style="endArrow=classic;html=1;rounded=0;" edge="1" parent="1" source="c734w6c-eVpLBY2QEzrI-30" target="c734w6c-eVpLBY2QEzrI-42">
          <mxGeometry width="50" height="50" relative="1" as="geometry">
            <mxPoint x="290" y="990" as="sourcePoint" />
            <mxPoint x="340" y="940" as="targetPoint" />
          </mxGeometry>
        </mxCell>
        <mxCell id="TBtc9OhAfgtJWs3fjQMd-16" value="MoreDetailsPresenterInjector" style="rounded=0;whiteSpace=wrap;html=1;" vertex="1" parent="1">
          <mxGeometry x="860" y="210" width="177.5" height="60" as="geometry" />
        </mxCell>
        <mxCell id="TBtc9OhAfgtJWs3fjQMd-17" value="MoreDetailsViewInjector" style="rounded=0;whiteSpace=wrap;html=1;" vertex="1" parent="1">
          <mxGeometry x="860" y="90" width="177.5" height="60" as="geometry" />
        </mxCell>
        <mxCell id="TBtc9OhAfgtJWs3fjQMd-20" value="" style="endArrow=classic;html=1;rounded=0;dashed=1;" edge="1" parent="1" source="TBtc9OhAfgtJWs3fjQMd-17" target="TBtc9OhAfgtJWs3fjQMd-16">
          <mxGeometry width="50" height="50" relative="1" as="geometry">
            <mxPoint x="622.5" y="222" as="sourcePoint" />
            <mxPoint x="920" y="270" as="targetPoint" />
            <Array as="points" />
          </mxGeometry>
        </mxCell>
        <mxCell id="TBtc9OhAfgtJWs3fjQMd-23" value="" style="endArrow=classic;html=1;rounded=0;dashed=1;" edge="1" parent="1" source="TBtc9OhAfgtJWs3fjQMd-16" target="c734w6c-eVpLBY2QEzrI-4">
          <mxGeometry width="50" height="50" relative="1" as="geometry">
            <mxPoint x="940" y="310" as="sourcePoint" />
            <mxPoint x="940" y="430" as="targetPoint" />
            <Array as="points" />
          </mxGeometry>
        </mxCell>
        <mxCell id="TBtc9OhAfgtJWs3fjQMd-24" value="" style="endArrow=classic;html=1;rounded=0;dashed=1;" edge="1" parent="1" source="TBtc9OhAfgtJWs3fjQMd-16" target="c734w6c-eVpLBY2QEzrI-12">
          <mxGeometry width="50" height="50" relative="1" as="geometry">
            <mxPoint x="959" y="340" as="sourcePoint" />
            <mxPoint x="959" y="430" as="targetPoint" />
            <Array as="points" />
          </mxGeometry>
        </mxCell>
        <mxCell id="TBtc9OhAfgtJWs3fjQMd-25" value="" style="endArrow=classic;html=1;rounded=0;dashed=1;" edge="1" parent="1" source="c734w6c-eVpLBY2QEzrI-4" target="c734w6c-eVpLBY2QEzrI-42">
          <mxGeometry width="50" height="50" relative="1" as="geometry">
            <mxPoint x="872.8035714285711" y="739.9999999999998" as="sourcePoint" />
            <mxPoint x="700" y="820" as="targetPoint" />
            <Array as="points" />
          </mxGeometry>
        </mxCell>
        <mxCell id="TBtc9OhAfgtJWs3fjQMd-26" value="" style="endArrow=classic;html=1;rounded=0;dashed=1;" edge="1" parent="1" source="c734w6c-eVpLBY2QEzrI-4" target="c734w6c-eVpLBY2QEzrI-32">
          <mxGeometry width="50" height="50" relative="1" as="geometry">
            <mxPoint x="893" y="770" as="sourcePoint" />
            <mxPoint x="730" y="900" as="targetPoint" />
            <Array as="points" />
          </mxGeometry>
        </mxCell>
        <mxCell id="TBtc9OhAfgtJWs3fjQMd-27" value="" style="endArrow=classic;html=1;rounded=0;dashed=1;" edge="1" parent="1" source="c734w6c-eVpLBY2QEzrI-4" target="c734w6c-eVpLBY2QEzrI-24">
          <mxGeometry width="50" height="50" relative="1" as="geometry">
            <mxPoint x="903" y="780" as="sourcePoint" />
            <mxPoint x="666" y="1060" as="targetPoint" />
            <Array as="points">
              <mxPoint x="840" y="1210" />
              <mxPoint x="520" y="1210" />
            </Array>
          </mxGeometry>
        </mxCell>
        <mxCell id="TBtc9OhAfgtJWs3fjQMd-28" value="" style="endArrow=classic;html=1;rounded=0;dashed=1;" edge="1" parent="1" source="c734w6c-eVpLBY2QEzrI-4" target="c734w6c-eVpLBY2QEzrI-30">
          <mxGeometry width="50" height="50" relative="1" as="geometry">
            <mxPoint x="950" y="770" as="sourcePoint" />
            <mxPoint x="300" y="1107" as="targetPoint" />
            <Array as="points">
              <mxPoint x="820" y="1140" />
              <mxPoint x="680" y="1140" />
              <mxPoint x="540" y="1140" />
            </Array>
          </mxGeometry>
        </mxCell>
        <mxCell id="TBtc9OhAfgtJWs3fjQMd-29" value="" style="endArrow=classic;html=1;rounded=0;dashed=1;" edge="1" parent="1" source="c734w6c-eVpLBY2QEzrI-4" target="c734w6c-eVpLBY2QEzrI-28">
          <mxGeometry width="50" height="50" relative="1" as="geometry">
            <mxPoint x="950" y="770" as="sourcePoint" />
            <mxPoint x="300" y="1107" as="targetPoint" />
            <Array as="points">
              <mxPoint x="840" y="1170" />
              <mxPoint x="530" y="1170" />
            </Array>
          </mxGeometry>
        </mxCell>
        <mxCell id="TBtc9OhAfgtJWs3fjQMd-32" value="" style="endArrow=classic;html=1;rounded=0;dashed=1;entryX=0.617;entryY=0.988;entryDx=0;entryDy=0;entryPerimeter=0;" edge="1" parent="1" source="c734w6c-eVpLBY2QEzrI-32" target="TBtc9OhAfgtJWs3fjQMd-4">
          <mxGeometry width="50" height="50" relative="1" as="geometry">
            <mxPoint x="200" y="1010" as="sourcePoint" />
            <mxPoint x="18" y="1093" as="targetPoint" />
            <Array as="points">
              <mxPoint x="631" y="1270" />
              <mxPoint x="114" y="1270" />
            </Array>
          </mxGeometry>
        </mxCell>
        <mxCell id="TBtc9OhAfgtJWs3fjQMd-33" value="" style="endArrow=classic;html=1;rounded=0;dashed=1;" edge="1" parent="1" source="c734w6c-eVpLBY2QEzrI-3" target="TBtc9OhAfgtJWs3fjQMd-5">
          <mxGeometry width="50" height="50" relative="1" as="geometry">
            <mxPoint x="576" y="1075" as="sourcePoint" />
            <mxPoint x="124" y="539" as="targetPoint" />
            <Array as="points" />
          </mxGeometry>
        </mxCell>
        <mxCell id="TBtc9OhAfgtJWs3fjQMd-35" value="&lt;div&gt;&amp;lt;&amp;lt;Interface&amp;gt;&amp;gt;&lt;/div&gt;&lt;div&gt;Observable&lt;/div&gt;" style="rounded=0;whiteSpace=wrap;html=1;" vertex="1" parent="1">
          <mxGeometry x="322.5" y="170" width="140" height="60" as="geometry" />
        </mxCell>
        <mxCell id="TBtc9OhAfgtJWs3fjQMd-36" value="" style="endArrow=classic;html=1;rounded=0;" edge="1" parent="1" source="c734w6c-eVpLBY2QEzrI-5" target="TBtc9OhAfgtJWs3fjQMd-35">
          <mxGeometry width="50" height="50" relative="1" as="geometry">
            <mxPoint x="430" y="350" as="sourcePoint" />
            <mxPoint x="480" y="300" as="targetPoint" />
          </mxGeometry>
        </mxCell>
        <mxCell id="TBtc9OhAfgtJWs3fjQMd-38" value="Subject" style="rounded=0;whiteSpace=wrap;html=1;" vertex="1" parent="1">
          <mxGeometry x="330" y="280" width="125" height="60" as="geometry" />
        </mxCell>
        <mxCell id="TBtc9OhAfgtJWs3fjQMd-39" value="" style="endArrow=none;dashed=1;html=1;rounded=0;startArrow=block;startFill=0;fontStyle=1" edge="1" parent="1" source="TBtc9OhAfgtJWs3fjQMd-35" target="TBtc9OhAfgtJWs3fjQMd-38">
          <mxGeometry width="50" height="50" relative="1" as="geometry">
            <mxPoint x="651" y="140" as="sourcePoint" />
            <mxPoint x="651" y="220" as="targetPoint" />
          </mxGeometry>
        </mxCell>
        <mxCell id="TBtc9OhAfgtJWs3fjQMd-41" value="" style="endArrow=classic;html=1;rounded=0;" edge="1" parent="1" source="c734w6c-eVpLBY2QEzrI-12" target="TBtc9OhAfgtJWs3fjQMd-38">
          <mxGeometry width="50" height="50" relative="1" as="geometry">
            <mxPoint x="430" y="210" as="sourcePoint" />
            <mxPoint x="480" y="160" as="targetPoint" />
          </mxGeometry>
        </mxCell>
        <mxCell id="TBtc9OhAfgtJWs3fjQMd-42" value="" style="endArrow=none;dashed=1;html=1;rounded=0;startArrow=block;startFill=0;" edge="1" parent="1" source="TBtc9OhAfgtJWs3fjQMd-35" target="c734w6c-eVpLBY2QEzrI-6">
          <mxGeometry width="50" height="50" relative="1" as="geometry">
            <mxPoint x="403" y="240" as="sourcePoint" />
            <mxPoint x="140" y="220" as="targetPoint" />
          </mxGeometry>
        </mxCell>
        <mxCell id="TBtc9OhAfgtJWs3fjQMd-47" value="&lt;font style=&quot;font-size: 20px;&quot;&gt;Presentation&lt;/font&gt;" style="rounded=0;whiteSpace=wrap;html=1;fillColor=none;strokeColor=none;" vertex="1" parent="1">
          <mxGeometry x="10" y="20" width="100" height="40" as="geometry" />
        </mxCell>
        <mxCell id="TBtc9OhAfgtJWs3fjQMd-48" value="&lt;font style=&quot;font-size: 20px;&quot;&gt;Domain&lt;/font&gt;" style="rounded=0;whiteSpace=wrap;html=1;strokeColor=none;gradientColor=default;fillColor=none;" vertex="1" parent="1">
          <mxGeometry y="350" width="100" height="40" as="geometry" />
        </mxCell>
        <mxCell id="TBtc9OhAfgtJWs3fjQMd-49" value="&lt;font style=&quot;font-size: 20px;&quot;&gt;Injector&lt;/font&gt;" style="rounded=0;whiteSpace=wrap;html=1;strokeColor=none;gradientColor=default;fillColor=none;" vertex="1" parent="1">
          <mxGeometry x="885" y="20" width="100" height="40" as="geometry" />
        </mxCell>
        <mxCell id="TBtc9OhAfgtJWs3fjQMd-50" value="&lt;font style=&quot;font-size: 20px;&quot;&gt;Data&lt;/font&gt;" style="rounded=0;whiteSpace=wrap;html=1;strokeColor=none;gradientColor=default;fillColor=none;" vertex="1" parent="1">
          <mxGeometry y="625" width="100" height="40" as="geometry" />
        </mxCell>
      </root>
    </mxGraphModel>
  </diagram>
</mxfile>
